<?xml version="1.0" encoding="utf-8"?>
<!-- Generator: Adobe Illustrator 21.0.0, SVG Export Plug-In . SVG Version: 6.00 Build 0)  -->
<svg version="1.1" id="Layer_1" xmlns="http://www.w3.org/2000/svg" xmlns:xlink="http://www.w3.org/1999/xlink" x="0px" y="0px"
	 viewBox="0 0 288.1 288" style="enable-background:new 0 0 288.1 288;" xml:space="preserve">
<style type="text/css">
	.st0{clip-path:url(#SVGID_2_);}
	.st1{fill:#00316A;}
	.st2{fill:#00326A;}
	.st3{fill:#00326B;}
	.st4{fill:#00336C;}
	.st5{fill:#00346C;}
	.st6{fill:#00356D;}
	.st7{fill:#09366E;}
	.st8{fill:#0D376F;}
	.st9{fill:#0F376F;}
	.st10{fill:#123870;}
	.st11{fill:#143971;}
	.st12{fill:#163971;}
	.st13{fill:#173A72;}
	.st14{fill:#193B73;}
	.st15{fill:#1B3B73;}
	.st16{fill:#1C3C74;}
	.st17{fill:#1D3D75;}
	.st18{fill:#1F3D76;}
	.st19{fill:#203E76;}
	.st20{fill:#213F77;}
	.st21{fill:#223F78;}
	.st22{fill:#234078;}
	.st23{fill:#254179;}
	.st24{fill:#26417A;}
	.st25{fill:#27427A;}
	.st26{fill:#28437B;}
	.st27{fill:#29437C;}
	.st28{fill:#2A447C;}
	.st29{fill:#2B457D;}
	.st30{fill:#2C457E;}
	.st31{fill:#2D467F;}
	.st32{fill:#2E477F;}
	.st33{fill:#2F4780;}
	.st34{fill:#304881;}
	.st35{fill:#314981;}
	.st36{fill:#324A82;}
	.st37{fill:#324A83;}
	.st38{fill:#334B83;}
	.st39{fill:#344C84;}
	.st40{fill:#354C85;}
	.st41{fill:#364D86;}
	.st42{fill:#374E86;}
	.st43{fill:#384F87;}
	.st44{fill:#394F88;}
	.st45{fill:#3A5089;}
	.st46{fill:#3B5189;}
	.st47{fill:#3B518A;}
	.st48{fill:#3C528B;}
	.st49{fill:#3D538C;}
	.st50{fill:#3E548C;}
	.st51{fill:#3F548D;}
	.st52{fill:#40558E;}
	.st53{fill:#41568F;}
	.st54{fill:#41578F;}
	.st55{fill:#425790;}
	.st56{fill:#435891;}
	.st57{fill:#445992;}
	.st58{fill:#455992;}
	.st59{fill:#465A93;}
	.st60{fill:#475B94;}
	.st61{fill:#475C95;}
	.st62{fill:#485D96;}
	.st63{fill:#495D96;}
	.st64{fill:#4A5E97;}
	.st65{fill:#4B5F98;}
	.st66{fill:#4C6099;}
	.st67{fill:#4D609A;}
	.st68{fill:#4D619A;}
	.st69{fill:#4E629B;}
	.st70{fill:#4F639C;}
	.st71{fill:#50649D;}
	.st72{fill:#51649E;}
	.st73{fill:#52659F;}
	.st74{fill:#5266A0;}
	.st75{fill:#5367A0;}
	.st76{fill:#5468A1;}
	.st77{fill:#5569A2;}
	.st78{fill:#566AA3;}
	.st79{fill:#576AA4;}
	.st80{fill:#586BA5;}
	.st81{fill:#586CA6;}
	.st82{fill:#596DA7;}
	.st83{fill:#5A6EA7;}
	.st84{fill:#5B6FA8;}
	.st85{fill:#5C70A9;}
	.st86{fill:#5D71AA;}
	.st87{fill:#5E71AB;}
	.st88{fill:#5F72AC;}
	.st89{fill:#5F73AD;}
	.st90{fill:#6074AE;}
	.st91{fill:#6175AF;}
	.st92{fill:#6276B0;}
	.st93{fill:#6377B1;}
	.st94{fill:#6478B2;}
	.st95{fill:#6579B2;}
	.st96{fill:#657AB3;}
	.st97{fill:#667BB4;}
	.st98{fill:#677CB5;}
	.st99{fill:#687CB6;}
	.st100{fill:#697DB7;}
	.st101{fill:#697EB7;}
	.st102{fill:#6A7FB8;}
	.st103{opacity:0.2;fill:#FFFFFF;}
	.st104{fill:#FFFFFF;}
</style>
<g>
	<defs>
		<path id="SVGID_1_" d="M0,25C0,11.2,11.2,0,25,0h238.1c13.8,0,25,11.2,25,25v238c0,13.8-11.2,25-25,25H25c-13.8,0-25-11.2-25-25
			V25L0,25z"/>
	</defs>
	<clipPath id="SVGID_2_">
		<use xlink:href="#SVGID_1_"  style="overflow:visible;"/>
	</clipPath>
	<g class="st0">
		<path class="st1" d="M406.7,144c0-141.4-114.8-256.3-256.3-256.3C9-112.3-105.8,2.6-105.8,144c0,141.5,114.8,256.3,256.3,256.3
			C291.9,400.3,406.7,285.5,406.7,144"/>
		<path class="st2" d="M404.4,144.7c0-140.2-113.8-254.1-254.1-254.1c-140.2,0-254.1,113.8-254.1,254.1
			c0,140.2,113.8,254.1,254.1,254.1C290.6,398.8,404.4,285,404.4,144.7"/>
		<path class="st3" d="M402.2,145.4c0-139-112.9-251.9-251.9-251.9c-139,0-251.9,112.8-251.9,251.9c0,139,112.8,251.9,251.9,251.9
			C289.4,397.3,402.2,284.5,402.2,145.4"/>
		<path class="st4" d="M400,146.2c0-137.8-111.9-249.7-249.7-249.7C12.4-103.6-99.4,8.3-99.4,146.2c0,137.8,111.9,249.7,249.7,249.7
			C288.1,395.9,400,284,400,146.2"/>
		<path class="st5" d="M397.8,146.9c0-136.6-110.9-247.5-247.5-247.5C13.6-100.7-97.3,10.2-97.3,146.9
			c0,136.6,110.9,247.5,247.5,247.5C286.9,394.4,397.8,283.5,397.8,146.9"/>
		<path class="st6" d="M395.6,147.6c0-135.4-109.9-245.4-245.4-245.4C14.8-97.8-95.2,12.2-95.2,147.6
			C-95.2,283.1,14.8,393,150.2,393C285.6,393,395.6,283.1,395.6,147.6"/>
		<path class="st6" d="M393.4,148.3c0-134.2-108.9-243.2-243.2-243.2C15.9-94.9-93,14.1-93,148.3c0,134.2,108.9,243.2,243.2,243.2
			C284.4,391.5,393.4,282.6,393.4,148.3"/>
		<path class="st7" d="M391.1,149.1c0-133-108-241-241-241c-133,0-241,108-241,241c0,133,108,241,241,241
			C283.2,390.1,391.1,282.1,391.1,149.1"/>
		<path class="st8" d="M388.9,149.8c0-131.8-107-238.8-238.8-238.8c-131.8,0-238.8,107-238.8,238.8c0,131.8,107,238.8,238.8,238.8
			C281.9,388.6,388.9,281.6,388.9,149.8"/>
		<path class="st9" d="M386.7,150.5c0-130.6-106-236.7-236.7-236.7c-130.6,0-236.7,106-236.7,236.7c0,130.6,106,236.7,236.7,236.7
			C280.7,387.2,386.7,281.1,386.7,150.5"/>
		<path class="st10" d="M384.5,151.2c0-129.4-105-234.5-234.5-234.5c-129.4,0-234.5,105-234.5,234.5c0,129.4,105,234.5,234.5,234.5
			C279.4,385.7,384.5,280.7,384.5,151.2"/>
		<path class="st11" d="M382.3,151.9C382.3,23.7,278.2-80.4,150-80.4C21.7-80.4-82.3,23.7-82.3,151.9
			c0,128.2,104.1,232.3,232.3,232.3C278.2,384.3,382.3,280.2,382.3,151.9"/>
		<path class="st12" d="M380.1,152.7c0-127-103.1-230.1-230.1-230.1c-127,0-230.1,103.1-230.1,230.1c0,127,103.1,230.1,230.1,230.1
			C277,382.8,380.1,279.7,380.1,152.7"/>
		<path class="st13" d="M377.8,153.4c0-125.8-102.1-228-228-228c-125.8,0-228,102.1-228,228c0,125.8,102.1,228,228,228
			C275.7,381.3,377.8,279.2,377.8,153.4"/>
		<path class="st14" d="M375.6,154.1c0-124.6-101.1-225.8-225.8-225.8C25.2-71.7-75.9,29.5-75.9,154.1
			c0,124.6,101.1,225.8,225.8,225.8C274.5,379.9,375.6,278.7,375.6,154.1"/>
		<path class="st15" d="M373.4,154.8c0-123.4-100.2-223.6-223.6-223.6C26.4-68.8-73.8,31.4-73.8,154.8
			c0,123.4,100.2,223.6,223.6,223.6C273.2,378.4,373.4,278.3,373.4,154.8"/>
		<path class="st16" d="M371.2,155.6c0-122.2-99.2-221.4-221.4-221.4C27.5-65.9-71.7,33.3-71.7,155.6
			c0,122.2,99.2,221.4,221.4,221.4C272,377,371.2,277.8,371.2,155.6"/>
		<path class="st17" d="M369,156.3C369,35.3,270.7-63,149.7-63C28.7-63-69.5,35.3-69.5,156.3c0,121,98.2,219.2,219.2,219.2
			C270.7,375.5,369,277.3,369,156.3"/>
		<path class="st18" d="M366.8,157c0-119.8-97.2-217.1-217.1-217.1C29.9-60.1-67.4,37.2-67.4,157c0,119.8,97.2,217.1,217.1,217.1
			C269.5,374.1,366.8,276.8,366.8,157"/>
		<path class="st19" d="M364.5,157.7c0-118.6-96.3-214.9-214.9-214.9C31-57.2-65.2,39.1-65.2,157.7c0,118.6,96.3,214.9,214.9,214.9
			C268.3,372.6,364.5,276.3,364.5,157.7"/>
		<path class="st20" d="M362.3,158.5C362.3,41,267-54.3,149.6-54.3C32.2-54.3-63.1,41-63.1,158.5c0,117.4,95.3,212.7,212.7,212.7
			C267,371.2,362.3,275.9,362.3,158.5"/>
		<path class="st21" d="M360.1,159.2c0-116.2-94.3-210.5-210.5-210.5C33.3-51.4-61,43-61,159.2c0,116.2,94.3,210.5,210.5,210.5
			C265.8,369.7,360.1,275.4,360.1,159.2"/>
		<path class="st22" d="M357.9,159.9c0-115-93.3-208.4-208.4-208.4c-115,0-208.4,93.3-208.4,208.4c0,115,93.3,208.4,208.4,208.4
			C264.5,368.3,357.9,274.9,357.9,159.9"/>
		<path class="st23" d="M355.7,160.6c0-113.8-92.4-206.2-206.2-206.2C35.7-45.6-56.7,46.8-56.7,160.6
			c0,113.8,92.4,206.2,206.2,206.2C263.3,366.8,355.7,274.4,355.7,160.6"/>
		<path class="st24" d="M353.4,161.3c0-112.6-91.4-204-204-204c-112.6,0-204,91.4-204,204c0,112.6,91.4,204,204,204
			C262.1,365.3,353.4,274,353.4,161.3"/>
		<path class="st25" d="M351.2,162.1c0-111.4-90.4-201.8-201.8-201.8C38-39.8-52.4,50.7-52.4,162.1c0,111.4,90.4,201.8,201.8,201.8
			C260.8,363.9,351.2,273.5,351.2,162.1"/>
		<path class="st26" d="M349,162.8c0-110.2-89.4-199.7-199.7-199.7C39.2-36.9-50.3,52.6-50.3,162.8c0,110.2,89.4,199.7,199.7,199.7
			C259.6,362.4,349,273,349,162.8"/>
		<path class="st27" d="M346.8,163.5c0-109-88.5-197.5-197.5-197.5C40.3-34-48.2,54.5-48.2,163.5c0,109,88.5,197.5,197.5,197.5
			C258.3,361,346.8,272.5,346.8,163.5"/>
		<path class="st28" d="M344.6,164.2c0-107.8-87.5-195.3-195.3-195.3C41.5-31.1-46,56.4-46,164.2c0,107.8,87.5,195.3,195.3,195.3
			C257.1,359.5,344.6,272,344.6,164.2"/>
		<path class="st29" d="M342.4,165c0-106.6-86.5-193.1-193.1-193.1C42.6-28.2-43.9,58.4-43.9,165c0,106.6,86.5,193.1,193.1,193.1
			C255.8,358.1,342.4,271.6,342.4,165"/>
		<path class="st30" d="M340.1,165.7c0-105.4-85.5-190.9-190.9-190.9C43.8-25.3-41.7,60.3-41.7,165.7
			c0,105.4,85.5,190.9,190.9,190.9C254.6,356.6,340.1,271.1,340.1,165.7"/>
		<path class="st31" d="M337.9,166.4c0-104.2-84.6-188.8-188.8-188.8C45-22.4-39.6,62.2-39.6,166.4c0,104.2,84.6,188.8,188.8,188.8
			C253.4,355.2,337.9,270.6,337.9,166.4"/>
		<path class="st32" d="M335.7,167.1c0-103-83.6-186.6-186.6-186.6c-103,0-186.6,83.6-186.6,186.6c0,103,83.6,186.6,186.6,186.6
			C252.1,353.7,335.7,270.1,335.7,167.1"/>
		<path class="st33" d="M333.5,167.8c0-101.8-82.6-184.4-184.4-184.4C47.3-16.6-35.3,66.1-35.3,167.8
			c0,101.8,82.6,184.4,184.4,184.4C250.9,352.3,333.5,269.6,333.5,167.8"/>
		<path class="st34" d="M331.3,168.6C331.3,68,249.6-13.7,149-13.7C48.4-13.7-33.2,68-33.2,168.6c0,100.6,81.6,182.2,182.2,182.2
			C249.6,350.8,331.3,269.2,331.3,168.6"/>
		<path class="st35" d="M329.1,169.3c0-99.4-80.7-180.1-180.1-180.1c-99.4,0-180.1,80.7-180.1,180.1c0,99.4,80.7,180.1,180.1,180.1
			C248.4,349.4,329.1,268.7,329.1,169.3"/>
		<path class="st36" d="M326.8,170C326.8,71.8,247.1-7.9,149-7.9C50.8-7.9-28.9,71.8-28.9,170c0,98.2,79.7,177.9,177.9,177.9
			C247.1,347.9,326.8,268.2,326.8,170"/>
		<path class="st37" d="M324.6,170.7C324.6,73.7,245.9-5,148.9-5C51.9-5-26.8,73.7-26.8,170.7c0,97,78.7,175.7,175.7,175.7
			C245.9,346.4,324.6,267.7,324.6,170.7"/>
		<path class="st38" d="M322.4,171.5c0-95.8-77.7-173.5-173.5-173.5C53.1-2.1-24.6,75.7-24.6,171.5c0,95.8,77.7,173.5,173.5,173.5
			C244.7,345,322.4,267.2,322.4,171.5"/>
		<path class="st39" d="M320.2,172.2c0-94.6-76.8-171.4-171.4-171.4C54.3,0.8-22.5,77.6-22.5,172.2c0,94.6,76.8,171.4,171.4,171.4
			C243.4,343.5,320.2,266.8,320.2,172.2"/>
		<path class="st40" d="M318,172.9C318,79.5,242.2,3.7,148.8,3.7C55.4,3.7-20.4,79.5-20.4,172.9c0,93.4,75.8,169.2,169.2,169.2
			C242.2,342.1,318,266.3,318,172.9"/>
		<path class="st41" d="M315.8,173.6c0-92.2-74.8-167-167-167c-92.2,0-167,74.8-167,167c0,92.2,74.8,167,167,167
			C240.9,340.6,315.8,265.8,315.8,173.6"/>
		<path class="st42" d="M313.5,174.4c0-91-73.8-164.8-164.8-164.8c-91,0-164.8,73.8-164.8,164.8c0,91,73.8,164.8,164.8,164.8
			C239.7,339.2,313.5,265.3,313.5,174.4"/>
		<path class="st43" d="M311.3,175.1c0-89.8-72.9-162.6-162.6-162.6C58.9,12.4-14,85.3-14,175.1c0,89.8,72.9,162.6,162.6,162.6
			C238.5,337.7,311.3,264.9,311.3,175.1"/>
		<path class="st44" d="M309.1,175.8c0-88.6-71.9-160.5-160.5-160.5c-88.6,0-160.5,71.9-160.5,160.5c0,88.6,71.9,160.5,160.5,160.5
			C237.2,336.3,309.1,264.4,309.1,175.8"/>
		<path class="st45" d="M306.9,176.5c0-87.4-70.9-158.3-158.3-158.3C61.2,18.2-9.7,89.1-9.7,176.5c0,87.4,70.9,158.3,158.3,158.3
			C236,334.8,306.9,263.9,306.9,176.5"/>
		<path class="st46" d="M304.7,177.2c0-86.2-69.9-156.1-156.1-156.1C62.4,21.1-7.6,91.1-7.6,177.2c0,86.2,69.9,156.1,156.1,156.1
			C234.7,333.4,304.7,263.4,304.7,177.2"/>
		<path class="st47" d="M302.5,178c0-85-69-153.9-153.9-153.9C63.5,24-5.4,93-5.4,178c0,85,69,153.9,153.9,153.9
			C233.5,331.9,302.5,262.9,302.5,178"/>
		<path class="st48" d="M300.2,178.7c0-83.8-68-151.8-151.8-151.8c-83.8,0-151.8,68-151.8,151.8c0,83.8,68,151.8,151.8,151.8
			C232.2,330.4,300.2,262.5,300.2,178.7"/>
		<path class="st49" d="M298,179.4c0-82.6-67-149.6-149.6-149.6c-82.6,0-149.6,67-149.6,149.6c0,82.6,67,149.6,149.6,149.6
			C231,329,298,262,298,179.4"/>
		<path class="st50" d="M295.8,180.1c0-81.4-66-147.4-147.4-147.4C67,32.7,1,98.8,1,180.1c0,81.4,66,147.4,147.4,147.4
			C229.8,327.5,295.8,261.5,295.8,180.1"/>
		<path class="st51" d="M293.6,180.9c0-80.2-65.1-145.2-145.2-145.2C68.2,35.6,3.1,100.7,3.1,180.9c0,80.2,65.1,145.2,145.2,145.2
			C228.5,326.1,293.6,261,293.6,180.9"/>
		<path class="st52" d="M291.4,181.6c0-79-64.1-143.1-143.1-143.1c-79,0-143.1,64.1-143.1,143.1c0,79,64.1,143.1,143.1,143.1
			C227.3,324.6,291.4,260.5,291.4,181.6"/>
		<path class="st53" d="M289.1,182.3c0-77.8-63.1-140.9-140.9-140.9C70.5,41.4,7.4,104.5,7.4,182.3c0,77.8,63.1,140.9,140.9,140.9
			C226,323.2,289.1,260.1,289.1,182.3"/>
		<path class="st54" d="M286.9,183c0-76.6-62.1-138.7-138.7-138.7C71.7,44.3,9.5,106.5,9.5,183c0,76.6,62.1,138.7,138.7,138.7
			C224.8,321.7,286.9,259.6,286.9,183"/>
		<path class="st55" d="M284.7,183.7c0-75.4-61.2-136.5-136.5-136.5c-75.4,0-136.5,61.2-136.5,136.5c0,75.4,61.2,136.5,136.5,136.5
			C223.6,320.3,284.7,259.1,284.7,183.7"/>
		<path class="st56" d="M282.5,184.5c0-74.2-60.2-134.3-134.3-134.3C74,50.1,13.8,110.3,13.8,184.5c0,74.2,60.2,134.3,134.3,134.3
			C222.3,318.8,282.5,258.6,282.5,184.5"/>
		<path class="st57" d="M280.3,185.2c0-73-59.2-132.2-132.2-132.2c-73,0-132.2,59.2-132.2,132.2c0,73,59.2,132.2,132.2,132.2
			C221.1,317.4,280.3,258.1,280.3,185.2"/>
		<path class="st58" d="M278.1,185.9c0-71.8-58.2-130-130-130c-71.8,0-130,58.2-130,130c0,71.8,58.2,130,130,130
			C219.8,315.9,278.1,257.7,278.1,185.9"/>
		<path class="st59" d="M275.8,186.6c0-70.6-57.3-127.8-127.8-127.8c-70.6,0-127.8,57.3-127.8,127.8c0,70.6,57.3,127.8,127.8,127.8
			C218.6,314.4,275.8,257.2,275.8,186.6"/>
		<path class="st60" d="M273.6,187.4c0-69.4-56.3-125.6-125.6-125.6C78.6,61.7,22.4,118,22.4,187.4C22.4,256.7,78.6,313,148,313
			C217.3,313,273.6,256.7,273.6,187.4"/>
		<path class="st61" d="M271.4,188.1c0-68.1-55.3-123.5-123.5-123.5c-68.1,0-123.5,55.3-123.5,123.5c0,68.1,55.3,123.5,123.5,123.5
			C216.1,311.5,271.4,256.2,271.4,188.1"/>
		<path class="st62" d="M269.2,188.8c0-66.9-54.3-121.3-121.3-121.3C81,67.5,26.6,121.9,26.6,188.8c0,66.9,54.3,121.3,121.3,121.3
			C214.9,310.1,269.2,255.8,269.2,188.8"/>
		<path class="st63" d="M267,189.5c0-65.7-53.4-119.1-119.1-119.1c-65.7,0-119.1,53.4-119.1,119.1c0,65.7,53.4,119.1,119.1,119.1
			C213.6,308.6,267,255.3,267,189.5"/>
		<path class="st64" d="M264.8,190.2c0-64.5-52.4-116.9-116.9-116.9c-64.5,0-116.9,52.4-116.9,116.9c0,64.5,52.4,116.9,116.9,116.9
			C212.4,307.2,264.8,254.8,264.8,190.2"/>
		<path class="st65" d="M262.5,191c0-63.3-51.4-114.8-114.8-114.8C84.4,76.2,33,127.6,33,191c0,63.3,51.4,114.8,114.8,114.8
			C211.1,305.7,262.5,254.3,262.5,191"/>
		<path class="st66" d="M260.3,191.7c0-62.1-50.4-112.6-112.6-112.6c-62.1,0-112.6,50.4-112.6,112.6c0,62.1,50.4,112.6,112.6,112.6
			C209.9,304.3,260.3,253.8,260.3,191.7"/>
		<path class="st67" d="M258.1,192.4c0-60.9-49.5-110.4-110.4-110.4C86.8,82,37.3,131.5,37.3,192.4c0,60.9,49.5,110.4,110.4,110.4
			C208.6,302.8,258.1,253.4,258.1,192.4"/>
		<path class="st68" d="M255.9,193.1c0-59.7-48.5-108.2-108.2-108.2c-59.7,0-108.2,48.5-108.2,108.2c0,59.7,48.5,108.2,108.2,108.2
			C207.4,301.4,255.9,252.9,255.9,193.1"/>
		<path class="st69" d="M253.7,193.9c0-58.5-47.5-106-106-106c-58.5,0-106,47.5-106,106c0,58.5,47.5,106,106,106
			C206.2,299.9,253.7,252.4,253.7,193.9"/>
		<path class="st70" d="M251.5,194.6c0-57.3-46.5-103.9-103.9-103.9c-57.3,0-103.9,46.5-103.9,103.9c0,57.3,46.5,103.9,103.9,103.9
			C204.9,298.5,251.5,251.9,251.5,194.6"/>
		<path class="st71" d="M249.2,195.3c0-56.1-45.6-101.7-101.7-101.7c-56.1,0-101.7,45.6-101.7,101.7c0,56.1,45.6,101.7,101.7,101.7
			C203.7,297,249.2,251.4,249.2,195.3"/>
		<path class="st72" d="M247,196c0-54.9-44.6-99.5-99.5-99.5C92.6,96.5,48,141.1,48,196c0,54.9,44.6,99.5,99.5,99.5
			C202.4,295.5,247,251,247,196"/>
		<path class="st73" d="M244.8,196.8c0-53.7-43.6-97.3-97.3-97.3c-53.7,0-97.3,43.6-97.3,97.3c0,53.7,43.6,97.3,97.3,97.3
			C201.2,294.1,244.8,250.5,244.8,196.8"/>
		<path class="st74" d="M242.6,197.5c0-52.5-42.6-95.2-95.2-95.2c-52.5,0-95.2,42.6-95.2,95.2c0,52.5,42.6,95.2,95.2,95.2
			C200,292.6,242.6,250,242.6,197.5"/>
		<path class="st75" d="M240.4,198.2c0-51.3-41.7-93-93-93c-51.3,0-93,41.7-93,93c0,51.3,41.7,93,93,93
			C198.7,291.2,240.4,249.5,240.4,198.2"/>
		<path class="st76" d="M238.2,198.9c0-50.1-40.7-90.8-90.8-90.8c-50.1,0-90.8,40.7-90.8,90.8c0,50.1,40.7,90.8,90.8,90.8
			C197.5,289.7,238.2,249,238.2,198.9"/>
		<path class="st77" d="M235.9,199.6c0-48.9-39.7-88.6-88.6-88.6c-48.9,0-88.6,39.7-88.6,88.6c0,48.9,39.7,88.6,88.6,88.6
			C196.2,288.3,235.9,248.6,235.9,199.6"/>
		<path class="st78" d="M233.7,200.4c0-47.7-38.7-86.5-86.5-86.5c-47.7,0-86.5,38.7-86.5,86.5c0,47.7,38.7,86.5,86.5,86.5
			C195,286.8,233.7,248.1,233.7,200.4"/>
		<path class="st79" d="M231.5,201.1c0-46.5-37.8-84.3-84.3-84.3c-46.5,0-84.3,37.8-84.3,84.3c0,46.5,37.8,84.3,84.3,84.3
			C193.7,285.4,231.5,247.6,231.5,201.1"/>
		<path class="st80" d="M229.3,201.8c0-45.3-36.8-82.1-82.1-82.1c-45.3,0-82.1,36.8-82.1,82.1c0,45.3,36.8,82.1,82.1,82.1
			C192.5,283.9,229.3,247.1,229.3,201.8"/>
		<path class="st81" d="M227.1,202.5c0-44.1-35.8-79.9-79.9-79.9c-44.1,0-79.9,35.8-79.9,79.9c0,44.1,35.8,79.9,79.9,79.9
			C191.3,282.5,227.1,246.7,227.1,202.5"/>
		<path class="st82" d="M224.8,203.3c0-42.9-34.8-77.7-77.7-77.7c-42.9,0-77.7,34.8-77.7,77.7c0,42.9,34.8,77.7,77.7,77.7
			C190,281,224.8,246.2,224.8,203.3"/>
		<path class="st83" d="M222.6,204c0-41.7-33.9-75.6-75.6-75.6c-41.7,0-75.6,33.9-75.6,75.6c0,41.7,33.9,75.6,75.6,75.6
			C188.8,279.5,222.6,245.7,222.6,204"/>
		<path class="st84" d="M220.4,204.7c0-40.5-32.9-73.4-73.4-73.4c-40.5,0-73.4,32.9-73.4,73.4c0,40.5,32.9,73.4,73.4,73.4
			C187.5,278.1,220.4,245.2,220.4,204.7"/>
		<path class="st85" d="M218.2,205.4c0-39.3-31.9-71.2-71.2-71.2c-39.3,0-71.2,31.9-71.2,71.2c0,39.3,31.9,71.2,71.2,71.2
			C186.3,276.6,218.2,244.7,218.2,205.4"/>
		<path class="st86" d="M216,206.1c0-38.1-30.9-69-69-69c-38.1,0-69,30.9-69,69c0,38.1,30.9,69,69,69
			C185.1,275.2,216,244.3,216,206.1"/>
		<path class="st87" d="M213.8,206.9c0-36.9-30-66.9-66.9-66.9C110,140,80,170,80,206.9c0,36.9,30,66.9,66.9,66.9
			C183.8,273.7,213.8,243.8,213.8,206.9"/>
		<path class="st88" d="M211.5,207.6c0-35.7-29-64.7-64.7-64.7c-35.7,0-64.7,29-64.7,64.7c0,35.7,29,64.7,64.7,64.7
			C182.6,272.3,211.5,243.3,211.5,207.6"/>
		<path class="st89" d="M209.3,208.3c0-34.5-28-62.5-62.5-62.5c-34.5,0-62.5,28-62.5,62.5c0,34.5,28,62.5,62.5,62.5
			C181.3,270.8,209.3,242.8,209.3,208.3"/>
		<path class="st90" d="M207.1,209c0-33.3-27-60.3-60.3-60.3c-33.3,0-60.3,27-60.3,60.3c0,33.3,27,60.3,60.3,60.3
			C180.1,269.4,207.1,242.3,207.1,209"/>
		<path class="st91" d="M204.9,209.8c0-32.1-26.1-58.2-58.2-58.2c-32.1,0-58.2,26.1-58.2,58.2c0,32.1,26.1,58.2,58.2,58.2
			C178.8,267.9,204.9,241.9,204.9,209.8"/>
		<path class="st92" d="M202.7,210.5c0-30.9-25.1-56-56-56c-30.9,0-56,25.1-56,56c0,30.9,25.1,56,56,56
			C177.6,266.5,202.7,241.4,202.7,210.5"/>
		<path class="st93" d="M200.5,211.2c0-29.7-24.1-53.8-53.8-53.8c-29.7,0-53.8,24.1-53.8,53.8c0,29.7,24.1,53.8,53.8,53.8
			C176.4,265,200.5,240.9,200.5,211.2"/>
		<path class="st94" d="M198.2,211.9c0-28.5-23.1-51.6-51.6-51.6c-28.5,0-51.6,23.1-51.6,51.6c0,28.5,23.1,51.6,51.6,51.6
			C175.1,263.5,198.2,240.4,198.2,211.9"/>
		<path class="st95" d="M196,212.7c0-27.3-22.2-49.4-49.4-49.4c-27.3,0-49.4,22.2-49.4,49.4c0,27.3,22.2,49.4,49.4,49.4
			C173.9,262.1,196,239.9,196,212.7"/>
		<path class="st96" d="M193.8,213.4c0-26.1-21.2-47.3-47.3-47.3c-26.1,0-47.3,21.2-47.3,47.3c0,26.1,21.2,47.3,47.3,47.3
			C172.6,260.6,193.8,239.5,193.8,213.4"/>
		<path class="st97" d="M191.6,214.1c0-24.9-20.2-45.1-45.1-45.1c-24.9,0-45.1,20.2-45.1,45.1c0,24.9,20.2,45.1,45.1,45.1
			C171.4,259.2,191.6,239,191.6,214.1"/>
		<path class="st98" d="M189.4,214.8c0-23.7-19.2-42.9-42.9-42.9c-23.7,0-42.9,19.2-42.9,42.9c0,23.7,19.2,42.9,42.9,42.9
			C170.1,257.7,189.4,238.5,189.4,214.8"/>
		<path class="st99" d="M187.2,215.5c0-22.5-18.2-40.7-40.7-40.7c-22.5,0-40.7,18.2-40.7,40.7c0,22.5,18.2,40.7,40.7,40.7
			C168.9,256.3,187.2,238,187.2,215.5"/>
		<path class="st100" d="M184.9,216.3c0-21.3-17.3-38.6-38.6-38.6c-21.3,0-38.6,17.3-38.6,38.6c0,21.3,17.3,38.6,38.6,38.6
			C167.7,254.8,184.9,237.5,184.9,216.3"/>
		<path class="st101" d="M182.7,217c0-20.1-16.3-36.4-36.4-36.4c-20.1,0-36.4,16.3-36.4,36.4c0,20.1,16.3,36.4,36.4,36.4
			C166.4,253.4,182.7,237.1,182.7,217"/>
		<path class="st102" d="M180.5,217.7c0-18.9-15.3-34.2-34.2-34.2c-18.9,0-34.2,15.3-34.2,34.2c0,18.9,15.3,34.2,34.2,34.2
			C165.2,251.9,180.5,236.6,180.5,217.7"/>
	</g>
</g>
<path class="st103" d="M0,123.9c39.9,15,90,23.9,144.3,23.9c54.1,0,103.9-8.8,143.7-23.7V25c0-13.8-11.2-25-25-25H25
	C11.2,0,0,11.2,0,25V123.9L0,123.9z"/>
<path class="st104" d="M133.8,102.8h27V90.5v-12v-2c0-11.5,0.3-29.4,8.7-40.4c8.8-11.7,21-19.6,41.9-19.6c34,0,48.4,4.8,48.4,4.8
	l-6.7,40c0,0-11.3-3.3-21.8-3.3s-19.9,3.8-19.9,14.3v4.3v14v12.2h43l-3,39h-40v135.7h-50.6V141.8h-27V102.8L133.8,102.8z"/>
<path class="st103" d="M8.3,231.5c0-11,8.9-20,20-20h230c11,0,20,9,20,20v26c0,11-9,20-20,20h-230c-11.1,0-20-9-20-20V231.5
	L8.3,231.5z"/>
</svg>
